Coordinates
version=1
nRows=16
nColumns=32
inDegrees=yes

Units are S.I. units (second, meters, Newtons, ...)
If the header above contains a line with 'inDegrees', this indicates whether rotational values are in degrees (yes) or radians (no).

endheader
time	pelvis_tilt	pelvis_list	pelvis_rotation	pelvis_tx	pelvis_ty	pelvis_tz	hip_flexion_r	hip_adduction_r	hip_rotation_r	knee_angle_r	knee_adduction_r	med_cond_adduction_r	lat_cond_adduction_r	patella_r_constrained_knee_angle	ankle_angle_r	subtalar_angle_r	mtp_angle_r	hip_flexion_l	hip_adduction_l	hip_rotation_l	knee_angle_l	knee_adduction_l	med_cond_adduction_l	lat_cond_adduction_l	patella_l_constrained_knee_angle	ankle_angle_l	subtalar_angle_l	mtp_angle_l	lumbar_extension	lumbar_bending	lumbar_rotation
      0.00500000	      1.88919398	      6.37013967	      1.95952993	     -0.72328632	      0.93722692	      0.21809170	     25.63141133	    -15.04459131	     -7.20572794	    -37.39330475	      6.80734461	     -0.00000000	     -0.00000000	     -0.65263629	     -0.30934466	     -6.62751316	     -0.00000000	     -9.20557492	      7.78966427	    -13.98900692	     -7.44331847	     -0.46041981	     -0.00000000	     -0.00000000	     -0.12991041	      3.92426783	      5.02415661	     -0.00000000	     -4.41627248	     -5.02478941	      1.05395790
      0.01000000	      1.81803457	      6.49382641	      2.21320426	     -0.71694133	      0.93638248	      0.21766371	     25.76652669	    -15.20483000	     -7.68336307	    -35.68835648	      6.57634378	     -0.00000000	      0.00000000	     -0.62287933	     -0.51322370	     -6.57776215	      0.00000000	     -9.65314453	      7.91029486	    -13.69367112	     -7.31661898	     -0.50170195	     -0.00000000	     -0.00000000	     -0.12769909	      4.05901504	      5.08063358	      0.00000000	     -4.39989716	     -4.93450700	      1.11092025
      0.01500000	      1.73678896	      6.64809824	      2.38740711	     -0.71046138	      0.93542352	      0.21750145	     25.94514685	    -15.34560769	     -8.06969504	    -33.99291214	      6.34762210	     -0.00000000	     -0.00000000	     -0.59328824	     -0.68332210	     -6.51531989	      0.00000000	    -10.08376978	      8.01727350	    -13.58633950	     -7.24014170	     -0.48142791	      0.00000000	      0.00000000	     -0.12636431	      4.24433122	      5.30666231	     -0.00000000	     -4.34811775	     -5.00287246	      1.11031401
      0.02000000	      1.61447670	      6.83309820	      2.69010577	     -0.70389613	      0.93437523	      0.21698285	     26.12371219	    -15.62105211	     -8.61075641	    -32.30997658	      6.14291867	      0.00000000	      0.00000000	     -0.56391547	     -0.85936288	     -6.35159753	      0.00000000	    -10.53982805	      8.23346138	    -13.16823270	     -7.01173661	     -0.57745400	      0.00000000	      0.00000000	     -0.12237789	      4.28209239	      5.26473100	      0.00000000	     -4.25840993	     -5.11785314	      0.90473911
      0.02500000	      1.48566515	      7.05128243	      2.79323681	     -0.69725018	      0.93318535	      0.21709172	     26.39454352	    -15.79211303	     -8.94150887	    -30.66399009	      5.90604733	     -0.00000000	     -0.00000000	     -0.53518759	     -1.00889451	     -6.17397255	      0.00000000	    -10.95246241	      8.39902305	    -13.15120014	     -6.89677717	     -0.55382508	      0.00000000	      0.00000000	     -0.12037147	      4.42146440	      5.54743929	     -0.00000000	     -4.13845035	     -5.31249701	      0.95305944
      0.03000000	      1.36973215	      7.21109975	      2.95140640	     -0.69056915	      0.93204311	      0.21704519	     26.57587152	    -15.92681112	     -9.37088517	    -28.95349930	      5.67857774	     -0.00000000	     -0.00000000	     -0.50533389	     -1.16071180	     -5.94120668	     -0.00000000	    -11.40141024	      8.51494286	    -13.02989949	     -6.73264100	     -0.53817670	      0.00000000	      0.00000000	     -0.11750675	      4.51921709	      5.70810483	     -0.00000000	     -4.03557269	     -5.36343234	      1.01067196
      0.03500000	      1.23342800	      7.41449561	      3.03788529	     -0.68386893	      0.93076708	      0.21725352	     26.83129742	    -16.07223440	     -9.74328260	    -27.31994352	      5.45098167	     -0.00000000	     -0.00000000	     -0.47682297	     -1.27172990	     -5.60242758	      0.00000000	    -11.83061256	      8.66053066	    -13.00289917	     -6.57319140	     -0.50219807	     -0.00000000	     -0.00000000	     -0.11472383	      4.63763205	      5.93059905	     -0.00000000	     -3.90471631	     -5.51737563	      1.11798775
      0.04000000	      0.99420502	      7.75564704	      3.12072151	     -0.67715968	      0.92926079	      0.21749838	     27.25596729	    -16.39606224	    -10.03907907	    -25.81630554	      5.29704122	      0.00000000	      0.00000000	     -0.45057953	     -1.26778872	     -5.10949842	     -0.00000000	    -12.17342394	      8.99280426	    -12.90826908	     -6.36549574	     -0.51880974	     -0.00000000	     -0.00000000	     -0.11109886	      4.63918705	      6.07045599	      0.00000000	     -3.65863197	     -5.81028974	      1.32730047
      0.04500000	      0.98890078	      7.72983157	      3.23259529	     -0.67042461	      0.92830687	      0.21772173	     27.19779880	    -16.26632931	    -10.60953017	    -23.99923501	      5.03637799	      0.00000000	      0.00000000	     -0.41886567	     -1.47578347	     -4.77263155	      0.00000000	    -12.74595938	      8.82647152	    -12.91381714	     -6.20449446	     -0.40264193	      0.00000000	      0.00000000	     -0.10828886	      4.78748368	      6.34544471	     -0.00000000	     -3.69188270	     -5.73668658	      1.25208915
      0.05000000	      0.67832279	      8.15190712	      3.13083110	     -0.66369743	      0.92648211	      0.21855899	     27.84699961	    -16.56877186	    -10.74554448	    -22.73031174	      4.86126827	     -0.00000000	     -0.00000000	     -0.39671878	     -1.31845315	     -3.98451109	     -0.00000000	    -12.98814384	      9.22123031	    -13.08723707	     -6.05008520	     -0.36630570	     -0.00000000	     -0.00000000	     -0.10559391	      4.83248023	      6.63899972	     -0.00000000	     -3.35306034	     -6.09103427	      1.83674328
      0.05500000	      0.43897607	      8.48006590	      3.15119832	     -0.65701025	      0.92490232	      0.21909954	     28.27550326	    -16.84246216	    -11.03696483	    -21.34053362	      4.74643156	      0.00000000	      0.00000000	     -0.37246258	     -1.22520482	     -3.24503676	      0.00000000	    -13.31803082	      9.50189118	    -13.09461620	     -5.87020720	     -0.33371088	      0.00000000	      0.00000000	     -0.10245444	      4.83087992	      6.82697158	      0.00000000	     -3.12029114	     -6.40026365	      2.09953257
      0.06000000	      0.20123532	      8.75986322	      3.10103319	     -0.65032726	      0.92328832	      0.21986864	     28.71788624	    -17.00201314	    -11.31006837	    -19.99084312	      4.60299108	     -0.00000000	     -0.00000000	     -0.34890603	     -1.12182287	     -2.37907670	     -0.00000000	    -13.64687942	      9.71343937	    -13.17174203	     -5.68550947	     -0.26374566	      0.00000000	      0.00000000	     -0.09923086	      4.85333866	      7.06017651	      0.00000000	     -2.87366862	     -6.63015609	      2.49463925
      0.06500000	     -0.08900716	      9.11339152	      3.05000186	     -0.64366250	      0.92155713	      0.22064245	     29.25205309	    -17.25951078	    -11.50233154	    -18.75423192	      4.52928172	     -0.00000000	     -0.00000000	     -0.32732310	     -0.94197049	     -1.47971314	      0.00000000	    -13.89440819	     10.01753081	    -13.27788100	     -5.54730851	     -0.23130046	      0.00000000	      0.00000000	     -0.09681880	      4.84163033	      7.32345008	     -0.00000000	     -2.56808972	     -7.00840635	      2.80266949
      0.07000000	     -0.33545217	      9.41832622	      3.00682218	     -0.63702377	      0.91992136	      0.22143347	     29.70650241	    -17.46616095	    -11.74196110	    -17.53550368	      4.46944090	     -0.00000000	     -0.00000000	     -0.30605228	     -0.84061399	     -0.53749833	      0.00000000	    -14.16720040	     10.24850921	    -13.40663227	     -5.45107578	     -0.18167819	      0.00000000	      0.00000000	     -0.09513922	      4.87397137	      7.63846205	      0.00000000	     -2.32409213	     -7.30095004	      3.14366455
      0.07500000	     -0.46042268	      9.51491309	      2.99480711	     -0.63026850	      0.91862155	      0.22215915	     29.86144351	    -17.44315927	    -12.13940781	    -16.16482167	      4.38336041	     -0.00000000	     -0.00000000	     -0.28212936	     -0.73595308	      0.42801022	     -0.00000000	    -14.59225631	     10.21279423	    -13.51984560	     -5.30841394	     -0.07127157	     -0.00000000	     -0.00000000	     -0.09264930	      4.82812687	      7.92819821	      0.00000000	     -2.22923329	     -7.28383889	      3.45689087
      0.08000000	     -0.66059519	      9.71858827	      2.95262869	     -0.62359467	      0.91714218	      0.22297819	     30.16098116	    -17.51501364	    -12.32695211	    -14.92367952	      4.35904719	     -0.00000000	     -0.00000000	     -0.26046734	     -0.59494102	      1.34612779	     -0.00000000	    -14.90009278	     10.32199266	    -13.63536301	     -5.22254606	     -0.01283465	     -0.00000000	     -0.00000000	     -0.09115062	      4.77300264	      8.22980802	      0.00000000	     -2.04462586	     -7.46152532	      3.74591424
